<?xml version="1.0" encoding="utf-8"?>
<!-- Generator: Adobe Illustrator 22.0.1, SVG Export Plug-In . SVG Version: 6.00 Build 0)  -->
<svg version="1.1" id="Capa_1" xmlns="http://www.w3.org/2000/svg" xmlns:xlink="http://www.w3.org/1999/xlink" x="0px" y="0px"
	 viewBox="0 0 238.3 238.1" style="enable-background:new 0 0 238.3 238.1;" xml:space="preserve">
<style type="text/css">
	.st0{opacity:0.28;fill:#E3131B;}
	.st1{opacity:0.28;fill:#0B8D38;}
	.st2{opacity:0.28;fill:#95C01F;}
	.st3{opacity:0.28;fill:#E8590E;}
	.st4{opacity:0.28;fill:#FAB21C;}
	.st5{opacity:0.28;fill:#D60D71;}
	.st6{opacity:0.28;fill:#029C8F;}
	.st7{opacity:0.28;fill:#61277A;}
	.st8{opacity:0.28;fill:#A6378B;}
</style>
<path class="st0" d="M157,129.9c5.2-5.2,5.2-13.6,0-18.8l-28.2-28.2c-5.2-5.2-13.6-5.2-18.8,0l-28.2,28.2c-5.2,5.2-5.2,13.6,0,18.8
	l28.2,28.2c5.2,5.2,13.6,5.2,18.8,0L157,129.9z"/>
<path class="st1" d="M78.3,54.3h32.4c-0.8-1.6-1.8-3.2-3.2-4.5L72.2,14.5c-6.5-6.5-17-6.5-23.6,0L13.3,49.8c-6.5,6.5-6.5,17,0,23.6
	l35.3,35.3c1.3,1.3,2.9,2.4,4.5,3.2V79.5C53.2,65.6,64.4,54.3,78.3,54.3"/>
<path class="st2" d="M72.2,108.7l35.3-35.3c5.2-5.2,6.2-12.8,3.2-19H78.3c-13.9,0-25.2,11.3-25.2,25.2v32.4
	C59.4,114.9,67,113.9,72.2,108.7"/>
<path class="st3" d="M225.3,167.6L190,132.3c-1.3-1.4-2.9-2.4-4.5-3.2v32.4c0,13.9-11.3,25.2-25.2,25.2h-32.4
	c0.8,1.6,1.8,3.2,3.2,4.5l35.3,35.3c6.5,6.5,17.1,6.5,23.6,0l35.3-35.3C231.9,184.7,231.9,174.1,225.3,167.6"/>
<path class="st4" d="M185.5,161.5v-32.4c-6.2-3-13.9-2-19,3.2l-35.3,35.3c-5.2,5.2-6.2,12.8-3.2,19h32.4
	C174.2,186.7,185.5,175.4,185.5,161.5"/>
<path class="st5" d="M185.5,79.5V112c1.6-0.8,3.1-1.8,4.5-3.2l35.3-35.3c6.5-6.5,6.5-17.1,0-23.6L190,14.5c-6.5-6.5-17.1-6.5-23.6,0
	l-35.3,35.3c-1.3,1.3-2.4,2.9-3.2,4.5h32.4C174.2,54.3,185.5,65.6,185.5,79.5"/>
<path class="st6" d="M131.1,73.4l35.3,35.3c5.2,5.2,12.9,6.2,19.1,3.2V79.5c0-13.9-11.3-25.2-25.2-25.2h-32.4
	C124.8,60.6,125.9,68.3,131.1,73.4"/>
<path class="st7" d="M53.1,161.5v-32.3c-1.6,0.8-3.1,1.8-4.5,3.2l-35.3,35.3c-6.5,6.5-6.5,17.1,0,23.6l35.3,35.3
	c6.5,6.5,17.1,6.5,23.6,0l35.3-35.3c1.4-1.4,2.4-2.9,3.2-4.6H78.3C64.4,186.7,53.1,175.4,53.1,161.5"/>
<path class="st8" d="M107.6,167.7l-35.3-35.3c-5.2-5.2-12.9-6.2-19.1-3.2v32.3c0,13.9,11.3,25.2,25.2,25.2h32.5
	C113.8,180.5,112.7,172.8,107.6,167.7"/>
</svg>
